<svg width="14" height="16" viewBox="0 0 14 16" fill="none" xmlns="http://www.w3.org/2000/svg">
<path d="M10.182 0.00800701C10.148 -0.029993 8.923 0.023007 7.857 1.18001C6.791 2.33601 6.955 3.66201 6.979 3.69601C7.003 3.73001 8.499 3.78301 9.454 2.43801C10.409 1.09301 10.216 0.047007 10.182 0.00800701V0.00800701ZM13.496 11.741C13.448 11.645 11.171 10.507 11.383 8.31901C11.595 6.13001 13.058 5.53001 13.081 5.46501C13.104 5.40001 12.484 4.67501 11.827 4.30801C11.3446 4.04926 10.8107 3.90101 10.264 3.87401C10.156 3.87101 9.781 3.77901 9.01 3.99001C8.502 4.12901 7.357 4.57901 7.042 4.59701C6.726 4.61501 5.786 4.07501 4.775 3.93201C4.128 3.80701 3.442 4.06301 2.951 4.26001C2.461 4.45601 1.529 5.01401 0.877002 6.49701C0.225002 7.97901 0.566002 10.327 0.810002 11.057C1.054 11.786 1.435 12.981 2.083 13.853C2.659 14.837 3.423 15.52 3.742 15.752C4.061 15.984 4.961 16.138 5.585 15.819C6.087 15.511 6.993 15.334 7.351 15.347C7.708 15.36 8.412 15.501 9.133 15.886C9.704 16.083 10.244 16.001 10.785 15.781C11.326 15.56 12.109 14.722 13.023 13.023C13.37 12.233 13.528 11.806 13.496 11.741V11.741Z" fill="#E3D6FD"/>
</svg>
